<?xml version="1.0" encoding="utf-8"?>
<!-- Generator: Adobe Illustrator 24.0.0, SVG Export Plug-In . SVG Version: 6.00 Build 0)  -->
<svg version="1.1" id="Layer_1" xmlns="http://www.w3.org/2000/svg" xmlns:xlink="http://www.w3.org/1999/xlink" x="0px" y="0px"
	 viewBox="0 0 1024 1024" style="enable-background:new 0 0 1024 1024;" xml:space="preserve">
<path d="M776.4,491L475.5,230c-11.7-9.4-27.2-4.9-34.6,10.1c-2.4,4.8-3.7,10.3-3.8,15.9v113L274.9,230c-11.7-9.4-27.2-4.9-34.6,10.1
	c-2.4,4.8-3.7,10.3-3.8,15.9v522c0.5,17.7,12.1,31.5,25.9,30.9c4.4-0.2,8.7-1.9,12.5-4.9l162.2-139v113
	c0.5,17.7,12.1,31.5,25.9,30.9c4.4-0.2,8.7-1.9,12.5-4.9l300.9-261c11.3-9.3,14.5-28.5,7.1-42.9C781.7,496.5,779.3,493.4,776.4,491z
	"/>
</svg>
