<?xml version="1.0" standalone="no"?>
<!DOCTYPE svg PUBLIC "-//W3C//DTD SVG 1.1//EN" "http://www.w3.org/Graphics/SVG/1.1/DTD/svg11.dtd">

<svg viewBox="0 0 1024 1024" xmlns="http://www.w3.org/2000/svg">
    <defs>
        <style type="text/css"></style>
    </defs>
    <path d="M691 544L326 874c-17 14-44 14-59-2-6-8-10-19-10-29V181c0-23 19-42 42-42 10 0 21 4 27 10l362 330c17 14 19 42 2 59 2 2 0 2 0 4z"></path>
    <path d="M682 192a64 64 0 0 1 128 0v640a64 64 0 0 1-128 0v-640z"></path>
</svg>