<?xml version="1.0" encoding="utf-8"?>
<!-- Generator: Adobe Illustrator 24.0.0, SVG Export Plug-In . SVG Version: 6.00 Build 0)  -->
<svg version="1.1" id="Layer_1" xmlns="http://www.w3.org/2000/svg" xmlns:xlink="http://www.w3.org/1999/xlink" x="0px" y="0px"
	 viewBox="0 0 1024 1024" style="enable-background:new 0 0 1024 1024;" xml:space="preserve">
<path d="M312.8,486l403-256.1c18.8-10.9,48.6-10.9,65.1,1.6c6.6,6.2,11,14.7,11,22.5v513.7c0,17.8-21,32.6-46.4,32.6
	c-11,0-23.2-3.1-29.8-7.8L316,536.4c-18.8-10.9-21-32.6-2.2-45.8c-2.2-1.6,0-1.6,0-3.1L312.8,486z"/>
<path d="M371.5,759.4c0,27.4-31.6,49.7-70.7,49.7s-70.7-22.2-70.7-49.7V262.6c0-27.4,31.6-49.7,70.7-49.7s70.7,22.2,70.7,49.7
	L371.5,759.4z"/>
</svg>
