<?xml version="1.0" encoding="utf-8"?>
<!-- Generator: Adobe Illustrator 24.0.0, SVG Export Plug-In . SVG Version: 6.00 Build 0)  -->
<svg version="1.1" id="Layer_1" xmlns="http://www.w3.org/2000/svg" xmlns:xlink="http://www.w3.org/1999/xlink" x="0px" y="0px"
	 viewBox="0 0 1024 1024" style="enable-background:new 0 0 1024 1024;" xml:space="preserve">
<path d="M257.9,538l300.9,261c11.7,9.4,27.2,4.9,34.6-10.1c2.4-4.8,3.7-10.3,3.8-15.9V660l162.2,139c11.7,9.4,27.2,4.9,34.6-10.1
	c2.4-4.8,3.7-10.3,3.8-15.9V251c-0.5-17.7-12.1-31.5-25.9-30.9c-4.4,0.2-8.7,1.9-12.5,4.9L597.2,364V251
	c-0.5-17.7-12.1-31.5-25.9-30.9c-4.4,0.2-8.7,1.9-12.5,4.9L257.9,486c-11.3,9.3-14.5,28.5-7.1,42.9C252.6,532.5,255,535.6,257.9,538
	z"/>
</svg>
